<svg width="42" height="42" viewBox="0 0 42 42" fill="none" xmlns="http://www.w3.org/2000/svg">
<g clip-path="url(#clip0_10797_54335)">
<g filter="url(#filter0_d_10797_54335)">
<path d="M32.5827 5.11774C33.1851 4.51544 34.1592 4.51544 34.7552 5.11774L36.806 7.16812C37.4084 7.77042 37.4084 8.74435 36.806 9.34024L31.2304 14.9147L33.7298 17.4136C34.172 17.8557 34.3002 18.5157 34.0631 19.0924C33.826 19.669 33.262 20.0407 32.6403 20.0407H23.4182C22.5659 20.0407 21.8802 19.3551 21.8802 18.5029V9.28258C21.8802 8.66105 22.2519 8.0972 22.8286 7.86012C23.4054 7.62305 24.0655 7.7512 24.5077 8.19331L27.0071 10.6922L32.5827 5.11774ZM9.06277 22.0975H18.2913C19.1436 22.0975 19.8294 22.7831 19.8294 23.6352V32.862C19.8294 33.4835 19.4577 34.0473 18.8809 34.2844C18.3041 34.5215 17.644 34.3933 17.2018 33.9512L14.7024 31.4523L9.12686 37.0268C8.52444 37.6291 7.55032 37.6291 6.95431 37.0268L4.89713 34.9764C4.29471 34.3741 4.29471 33.4002 4.89713 32.8043L10.4727 27.2298L7.9733 24.7245C7.5311 24.2824 7.40292 23.6224 7.64005 23.0458C7.87717 22.4691 8.44113 22.0975 9.06277 22.0975Z" fill="white"/>
</g>
</g>
<defs>
<filter id="filter0_d_10797_54335" x="-0.554688" y="-0.333984" width="42.8125" height="42.8125" filterUnits="userSpaceOnUse" color-interpolation-filters="sRGB">
<feFlood flood-opacity="0" result="BackgroundImageFix"/>
<feColorMatrix in="SourceAlpha" type="matrix" values="0 0 0 0 0 0 0 0 0 0 0 0 0 0 0 0 0 0 127 0" result="hardAlpha"/>
<feOffset/>
<feGaussianBlur stdDeviation="2.5"/>
<feComposite in2="hardAlpha" operator="out"/>
<feColorMatrix type="matrix" values="0 0 0 0 0 0 0 0 0 0 0 0 0 0 0 0 0 0 0.8 0"/>
<feBlend mode="normal" in2="BackgroundImageFix" result="effect1_dropShadow_10797_54335"/>
<feBlend mode="normal" in="SourceGraphic" in2="effect1_dropShadow_10797_54335" result="shape"/>
</filter>
<clipPath id="clip0_10797_54335">
<rect width="42" height="42" fill="white"/>
</clipPath>
</defs>
</svg>
