<svg width="41" height="41" viewBox="0 0 41 41" fill="none" xmlns="http://www.w3.org/2000/svg">
<g clip-path="url(#clip0_10797_54310)">
<g filter="url(#filter0_d_10797_54310)">
<path d="M22.2639 7.0052C21.8995 6.17665 21.0778 5.62806 20.187 5.61129C19.2962 5.59452 18.5028 6.1127 18.1821 6.92835L8.64615 31.0083C8.26101 31.9792 8.63349 33.1112 9.52529 33.7198C10.4171 34.3284 11.5886 34.2331 12.3176 33.4985L20.703 25.0481L29.5456 33.8228C30.3143 34.5856 31.487 34.7202 32.3524 34.1496C33.2178 33.5789 33.5255 32.4549 33.0884 31.4685L22.2639 7.0052Z" fill="#FFF853"/>
<path d="M22.1267 7.0647L22.1268 7.06501L32.9513 31.5283L32.9513 31.5283C33.3604 32.4514 33.0706 33.4957 32.2692 34.0242C31.4657 34.5539 30.3713 34.4317 29.6508 33.7168L20.8082 24.9421L20.7013 24.836L20.5961 24.9421L12.2107 33.3924C11.5347 34.0737 10.4438 34.1657 9.60919 33.5961C8.77248 33.0251 8.42781 31.9666 8.78565 31.0645L8.78568 31.0644L18.3216 6.9845L18.3217 6.98418C18.6191 6.22797 19.3551 5.74563 20.1853 5.76126C21.0168 5.77691 21.7858 6.28971 22.1267 7.0647Z" stroke="black" stroke-width="0.3"/>
</g>
</g>
<defs>
<filter id="filter0_d_10797_54310" x="6.49609" y="3.61133" width="28.7891" height="32.8896" filterUnits="userSpaceOnUse" color-interpolation-filters="sRGB">
<feFlood flood-opacity="0" result="BackgroundImageFix"/>
<feColorMatrix in="SourceAlpha" type="matrix" values="0 0 0 0 0 0 0 0 0 0 0 0 0 0 0 0 0 0 127 0" result="hardAlpha"/>
<feOffset/>
<feGaussianBlur stdDeviation="1"/>
<feComposite in2="hardAlpha" operator="out"/>
<feColorMatrix type="matrix" values="0 0 0 0 0 0 0 0 0 0 0 0 0 0 0 0 0 0 0.6 0"/>
<feBlend mode="normal" in2="BackgroundImageFix" result="effect1_dropShadow_10797_54310"/>
<feBlend mode="normal" in="SourceGraphic" in2="effect1_dropShadow_10797_54310" result="shape"/>
</filter>
<clipPath id="clip0_10797_54310">
<rect width="40" height="40" fill="white" transform="matrix(1 0 0.00771328 0.99997 0.152344 0.0927734)"/>
</clipPath>
</defs>
</svg>
