<svg width="26" height="26" viewBox="0 0 26 26" fill="none" xmlns="http://www.w3.org/2000/svg">
<g clip-path="url(#clip0_10792_53411)">
<g filter="url(#filter0_d_10792_53411)">
<path d="M16.9102 1.625H23.3086C23.8996 1.625 24.375 2.10044 24.375 2.69141V9.08984C24.375 9.52085 24.1173 9.91187 23.7174 10.0763C23.3175 10.2407 22.8598 10.1518 22.5532 9.84521L20.8203 8.1123L16.9546 11.978C16.5369 12.3957 15.8615 12.3957 15.4483 11.978L14.0264 10.5562C13.6087 10.1385 13.6087 9.46309 14.0264 9.04985L17.8921 5.18413L16.1548 3.44678C15.8482 3.14019 15.7593 2.68252 15.9237 2.28262C16.0881 1.88271 16.4792 1.625 16.9102 1.625ZM9.08984 24.375H2.69141C2.10044 24.375 1.625 23.8996 1.625 23.3086V16.9102C1.625 16.4792 1.88271 16.0881 2.28262 15.9237C2.68252 15.7593 3.14019 15.8482 3.44678 16.1548L5.17969 17.8877L9.04541 14.022C9.46309 13.6043 10.1385 13.6043 10.5517 14.022L11.9736 15.4438C12.3913 15.8615 12.3913 16.5369 11.9736 16.9501L8.10786 20.8159L9.84077 22.5488C10.1474 22.8554 10.2362 23.313 10.0718 23.7129C9.90742 24.1128 9.51641 24.3706 9.0854 24.3706L9.08984 24.375Z" fill="white"/>
</g>
</g>
<defs>
<filter id="filter0_d_10792_53411" x="-0.375" y="-0.375" width="26.75" height="26.75" filterUnits="userSpaceOnUse" color-interpolation-filters="sRGB">
<feFlood flood-opacity="0" result="BackgroundImageFix"/>
<feColorMatrix in="SourceAlpha" type="matrix" values="0 0 0 0 0 0 0 0 0 0 0 0 0 0 0 0 0 0 127 0" result="hardAlpha"/>
<feOffset/>
<feGaussianBlur stdDeviation="1"/>
<feComposite in2="hardAlpha" operator="out"/>
<feColorMatrix type="matrix" values="0 0 0 0 0 0 0 0 0 0 0 0 0 0 0 0 0 0 0.75 0"/>
<feBlend mode="normal" in2="BackgroundImageFix" result="effect1_dropShadow_10792_53411"/>
<feBlend mode="normal" in="SourceGraphic" in2="effect1_dropShadow_10792_53411" result="shape"/>
</filter>
<clipPath id="clip0_10792_53411">
<rect width="26" height="26" fill="white"/>
</clipPath>
</defs>
</svg>
