<svg width="25" height="22" viewBox="0 0 25 22" fill="none" xmlns="http://www.w3.org/2000/svg">
<path d="M17.5395 21.4002C16.7205 21.4002 15.9551 21.2466 15.2433 20.9395C14.5316 20.6324 13.9125 20.2156 13.386 19.6891C12.8595 19.1626 12.4451 18.541 12.1428 17.8244C11.8406 17.1078 11.6895 16.3399 11.6895 15.5209C11.6895 14.7019 11.8406 13.939 12.1428 13.2321C12.4451 12.5253 12.8595 11.9086 13.386 11.3821C13.9125 10.8556 14.5316 10.4436 15.2433 10.1463C15.9551 9.84888 16.7205 9.7002 17.5395 9.7002C18.3585 9.7002 19.1238 9.84888 19.8356 10.1463C20.5473 10.4436 21.1665 10.8556 21.693 11.3821C22.2195 11.9086 22.6338 12.5253 22.9361 13.2321C23.2383 13.939 23.3895 14.7019 23.3895 15.5209C23.3895 16.3399 23.2383 17.1078 22.9361 17.8244C22.6338 18.541 22.2195 19.1626 21.693 19.6891C21.1665 20.2156 20.5473 20.6324 19.8356 20.9395C19.1238 21.2466 18.3585 21.4002 17.5395 21.4002ZM17.5395 20.5519C17.8807 20.2009 18.1659 19.7988 18.395 19.3454C18.6241 18.892 18.8118 18.3533 18.9581 17.7293H16.1355C16.272 18.3143 16.4548 18.8408 16.6839 19.3088C16.913 19.7768 17.1982 20.1912 17.5395 20.5519ZM16.2963 20.3764C16.0526 20.0059 15.843 19.6062 15.6675 19.1772C15.492 18.7482 15.3457 18.2656 15.2287 17.7293H13.035C13.4055 18.4216 13.8345 18.9651 14.322 19.36C14.8095 19.7549 15.4676 20.0937 16.2963 20.3764ZM18.7972 20.3618C19.4992 20.1376 20.1305 19.8012 20.6911 19.3527C21.2518 18.9042 21.7027 18.3631 22.044 17.7293H19.8648C19.7381 18.2558 19.5894 18.7336 19.4188 19.1626C19.2481 19.5916 19.041 19.9913 18.7972 20.3618ZM12.7425 16.8518H15.0678C15.0386 16.5886 15.0215 16.3521 15.0166 16.1425C15.0118 15.9329 15.0093 15.7257 15.0093 15.5209C15.0093 15.2772 15.0142 15.0603 15.024 14.8701C15.0337 14.68 15.0532 14.4679 15.0825 14.2339H12.7425C12.6742 14.4679 12.6279 14.6776 12.6035 14.8628C12.5791 15.0481 12.567 15.2674 12.567 15.5209C12.567 15.7744 12.5791 16.0011 12.6035 16.201C12.6279 16.4009 12.6742 16.6178 12.7425 16.8518ZM15.9746 16.8518H19.119C19.158 16.5496 19.1823 16.3034 19.1921 16.1133C19.2018 15.9231 19.2067 15.7257 19.2067 15.5209C19.2067 15.3259 19.2018 15.1383 19.1921 14.9579C19.1823 14.7775 19.158 14.5362 19.119 14.2339H15.9746C15.9356 14.5362 15.9112 14.7775 15.9015 14.9579C15.8917 15.1383 15.8868 15.3259 15.8868 15.5209C15.8868 15.7257 15.8917 15.9231 15.9015 16.1133C15.9112 16.3034 15.9356 16.5496 15.9746 16.8518ZM19.9965 16.8518H22.3365C22.4047 16.6178 22.451 16.4009 22.4754 16.201C22.4998 16.0011 22.512 15.7744 22.512 15.5209C22.512 15.2674 22.4998 15.0481 22.4754 14.8628C22.451 14.6776 22.4047 14.4679 22.3365 14.2339H20.0111C20.0403 14.5752 20.0598 14.836 20.0696 15.0164C20.0793 15.1968 20.0842 15.3649 20.0842 15.5209C20.0842 15.7354 20.0769 15.9378 20.0623 16.1279C20.0476 16.318 20.0257 16.5593 19.9965 16.8518ZM19.8502 13.3564H22.044C21.7222 12.6837 21.281 12.1231 20.7204 11.6746C20.1598 11.2261 19.5138 10.9092 18.7826 10.7239C19.0263 11.0847 19.2335 11.4747 19.4041 11.8939C19.5748 12.3132 19.7235 12.8007 19.8502 13.3564ZM16.1355 13.3564H18.9727C18.8655 12.8397 18.6851 12.34 18.4316 11.8574C18.1781 11.3748 17.8807 10.9482 17.5395 10.5777C17.2275 10.8409 16.9642 11.1871 16.7497 11.6161C16.5352 12.0451 16.3305 12.6252 16.1355 13.3564ZM13.035 13.3564H15.2433C15.3506 12.8299 15.4871 12.3595 15.6528 11.9451C15.8186 11.5308 16.0282 11.1286 16.2817 10.7386C15.5505 10.9238 14.9118 11.2358 14.3658 11.6746C13.8198 12.1133 13.3762 12.6739 13.035 13.3564Z" fill="white"/>
<path d="M3.89648 10.1335L7.04081 1.4668H8.4653L11.6965 10.1335H10.1851L9.47288 7.85846H6.13746L5.32098 10.1335H3.89648ZM6.51965 6.59457H8.98646L7.77043 3.0918H7.73568L6.51965 6.59457Z" fill="white"/>
<path d="M21.5933 10.8056L18.365 7.57725L19.2317 6.71059L20.9433 8.42225V7.53392C20.9433 5.98836 20.3908 4.66309 19.2858 3.55809C18.1808 2.45309 16.8556 1.90059 15.31 1.90059C14.8911 1.90059 14.4939 1.94031 14.1183 2.01975C13.7428 2.0992 13.3889 2.1967 13.0567 2.31225L12.125 1.38059C12.645 1.0917 13.1686 0.889475 13.6958 0.773919C14.2231 0.658364 14.7611 0.600586 15.31 0.600586C17.2022 0.600586 18.8308 1.28309 20.1958 2.64809C21.5608 4.01309 22.2433 5.6417 22.2433 7.53392V8.46559L23.9767 6.73225L24.8217 7.57725L21.5933 10.8056Z" fill="white"/>
<path d="M10.371 21.6829C8.47882 21.6829 6.85021 21.0004 5.48521 19.6354C4.12021 18.2704 3.43771 16.6418 3.43771 14.7496V13.7746L1.70438 15.5079L0.859375 14.6629L4.08771 11.4346L7.31604 14.6629L6.47104 15.5079L4.73771 13.7746V14.7496C4.73771 16.2951 5.29021 17.6204 6.39521 18.7254C7.50021 19.8304 8.82549 20.3829 10.371 20.3829C10.7899 20.3829 11.1872 20.3468 11.5627 20.2746C11.9383 20.2023 12.2922 20.094 12.6244 19.9496L13.556 20.8812C13.036 21.1701 12.5124 21.376 11.9852 21.4987C11.458 21.6215 10.9199 21.6829 10.371 21.6829Z" fill="white"/>
</svg>
