<svg width="26" height="26" viewBox="0 0 26 26" fill="none" xmlns="http://www.w3.org/2000/svg">
<path d="M6.94219 13.0006C6.21419 13.0006 5.53385 12.8641 4.90119 12.5911C4.26852 12.3181 3.71819 11.9476 3.25019 11.4796C2.78219 11.0116 2.41385 10.4591 2.14519 9.82209C1.87652 9.18509 1.74219 8.50259 1.74219 7.77459C1.74219 7.04659 1.87652 6.36842 2.14519 5.74009C2.41385 5.11175 2.78219 4.56359 3.25019 4.09559C3.71819 3.62759 4.26852 3.26142 4.90119 2.99709C5.53385 2.73275 6.21419 2.60059 6.94219 2.60059C7.67019 2.60059 8.35052 2.73275 8.98319 2.99709C9.61585 3.26142 10.1662 3.62759 10.6342 4.09559C11.1022 4.56359 11.4705 5.11175 11.7392 5.74009C12.0079 6.36842 12.1422 7.04659 12.1422 7.77459C12.1422 8.50259 12.0079 9.18509 11.7392 9.82209C11.4705 10.4591 11.1022 11.0116 10.6342 11.4796C10.1662 11.9476 9.61585 12.3181 8.98319 12.5911C8.35052 12.8641 7.67019 13.0006 6.94219 13.0006ZM6.94219 12.2466C7.24552 11.9346 7.49902 11.5771 7.70269 11.1741C7.90635 10.7711 8.07319 10.2923 8.20319 9.73759H5.69419C5.81552 10.2576 5.97802 10.7256 6.18169 11.1416C6.38535 11.5576 6.63885 11.9259 6.94219 12.2466ZM5.83719 12.0906C5.62052 11.7613 5.43419 11.4059 5.27819 11.0246C5.12219 10.6433 4.99219 10.2143 4.88819 9.73759H2.93819C3.26752 10.3529 3.64885 10.8361 4.08219 11.1871C4.51552 11.5381 5.10052 11.8393 5.83719 12.0906ZM8.06019 12.0776C8.68419 11.8783 9.24535 11.5793 9.74369 11.1806C10.242 10.7819 10.6429 10.3009 10.9462 9.73759H9.00919C8.89652 10.2056 8.76435 10.6303 8.61269 11.0116C8.46102 11.3929 8.27685 11.7483 8.06019 12.0776ZM2.67819 8.95759H4.74519C4.71919 8.72359 4.70402 8.51342 4.69969 8.32709C4.69535 8.14075 4.69319 7.95659 4.69319 7.77459C4.69319 7.55792 4.69752 7.36509 4.70619 7.19609C4.71485 7.02709 4.73219 6.83859 4.75819 6.63059H2.67819C2.61752 6.83859 2.57635 7.02492 2.55469 7.18959C2.53302 7.35425 2.52219 7.54925 2.52219 7.77459C2.52219 7.99992 2.53302 8.20142 2.55469 8.37909C2.57635 8.55675 2.61752 8.74959 2.67819 8.95759ZM5.55119 8.95759H8.34619C8.38085 8.68892 8.40252 8.47009 8.41119 8.30109C8.41985 8.13209 8.42419 7.95659 8.42419 7.77459C8.42419 7.60125 8.41985 7.43442 8.41119 7.27409C8.40252 7.11375 8.38085 6.89925 8.34619 6.63059H5.55119C5.51652 6.89925 5.49485 7.11375 5.48619 7.27409C5.47752 7.43442 5.47319 7.60125 5.47319 7.77459C5.47319 7.95659 5.47752 8.13209 5.48619 8.30109C5.49485 8.47009 5.51652 8.68892 5.55119 8.95759ZM9.12619 8.95759H11.2062C11.2669 8.74959 11.308 8.55675 11.3297 8.37909C11.3514 8.20142 11.3622 7.99992 11.3622 7.77459C11.3622 7.54925 11.3514 7.35425 11.3297 7.18959C11.308 7.02492 11.2669 6.83859 11.2062 6.63059H9.13919C9.16519 6.93392 9.18252 7.16575 9.19119 7.32609C9.19985 7.48642 9.20419 7.63592 9.20419 7.77459C9.20419 7.96525 9.19769 8.14509 9.18469 8.31409C9.17169 8.48309 9.15219 8.69759 9.12619 8.95759ZM8.99619 5.85059H10.9462C10.6602 5.25259 10.268 4.75425 9.76969 4.35559C9.27135 3.95692 8.69719 3.67525 8.04719 3.51059C8.26385 3.83125 8.44802 4.17792 8.59969 4.55059C8.75135 4.92325 8.88352 5.35659 8.99619 5.85059ZM5.69419 5.85059H8.21619C8.12085 5.39125 7.96052 4.94709 7.73519 4.51809C7.50985 4.08909 7.24552 3.70992 6.94219 3.38059C6.66485 3.61459 6.43085 3.92225 6.24019 4.30359C6.04952 4.68492 5.86752 5.20059 5.69419 5.85059ZM2.93819 5.85059H4.90119C4.99652 5.38259 5.11785 4.96442 5.26519 4.59609C5.41252 4.22775 5.59885 3.87025 5.82419 3.52359C5.17419 3.68825 4.60652 3.96559 4.12119 4.35559C3.63585 4.74559 3.24152 5.24392 2.93819 5.85059Z" fill="white"/>
<path d="M10.8418 20.8008L15.0342 9.53418H16.9336L21.2418 20.8008H19.2267L18.277 17.8433H13.8298L12.7411 20.8008H10.8418ZM14.3393 16.2003H17.6284L16.0071 11.6467H15.9607L14.3393 16.2003Z" fill="white"/>
<path d="M21.607 12.8056L18.3787 9.57725L19.2453 8.71059L20.957 10.4223V9.53392C20.957 7.98836 20.4045 6.66309 19.2995 5.55809C18.1945 4.45309 16.8692 3.90059 15.3237 3.90059C14.9048 3.90059 14.5076 3.94031 14.132 4.01975C13.7564 4.0992 13.4026 4.1967 13.0703 4.31225L12.1387 3.38059C12.6587 3.0917 13.1823 2.88947 13.7095 2.77392C14.2367 2.65836 14.7748 2.60059 15.3237 2.60059C17.2159 2.60059 18.8445 3.28309 20.2095 4.64809C21.5745 6.01309 22.257 7.6417 22.257 9.53392V10.4656L23.9903 8.73225L24.8353 9.57725L21.607 12.8056Z" fill="white"/>
<path d="M10.3847 23.6829C8.49249 23.6829 6.86388 23.0004 5.49888 21.6354C4.13388 20.2704 3.45138 18.6418 3.45138 16.7496V15.7746L1.71805 17.5079L0.873047 16.6629L4.10138 13.4346L7.32971 16.6629L6.48471 17.5079L4.75138 15.7746V16.7496C4.75138 18.2951 5.30388 19.6204 6.40888 20.7254C7.51388 21.8304 8.83916 22.3829 10.3847 22.3829C10.8036 22.3829 11.2008 22.3468 11.5764 22.2746C11.9519 22.2023 12.3058 22.094 12.638 21.9496L13.5697 22.8812C13.0497 23.1701 12.5261 23.376 11.9989 23.4987C11.4717 23.6215 10.9336 23.6829 10.3847 23.6829Z" fill="white"/>
</svg>
