<?xml version="1.0" encoding="UTF-8"?>
<svg id="_레이어_1" data-name="레이어 1" xmlns="http://www.w3.org/2000/svg" viewBox="0 0 350 350">
  <defs>
    <style>
      .cls-1 {
        fill: #e51b2e;
      }
    </style>
  </defs>
  <path class="cls-1" d="m176.03,191.32l-.34-.18.16.35.19-.17h0Zm3.85-21.71l-.07-.34-.23.13.3.21h0Zm138.89,140.35c.06-.08.17-.18.15-.25-.03-.11-.11-.25-.21-.3-.33-.14-.44,0-.25.36.05.09.2.13.31.19h0Zm-139.47-128.04c.04-.09.13-.22.1-.25-.08-.1-.21-.16-.33-.24-.04.09-.13.22-.1.25.08.1.21.16.33.24h0Zm91.93,75.4c.37.41.19.21,0,0,.19.2.38.41,0,0h0Zm-73.62-64.42c.04-.08.07-.16.11-.23-.42-.4-.84-.79-1.26-1.19-.03.03-.06.06-.08.09.41.44.83.89,1.24,1.33h0Zm4.2,10.4c.08-.05.15-.1.23-.15-1.86-1.99-3.71-3.99-5.59-5.97-.11-.12-.4-.08-.93-.17,1.26,1.18,2.33,2.13,3.33,3.13,1.02,1.02,1.97,2.1,2.95,3.15h0Zm1.33-5.72c1.77,2.58,3.89,4.08,5.52,6.03,1.01,1.2,2.08,2.35,4.28,3.97-3.43-3.81-6.1-6.78-8.77-9.73-.09-.09-.29-.08-1.03-.27h0Zm86.77,79.2c-2.85-2.85-5.11-5.87-8.12-8.19-.05-.04-.27.13-.52.26,1.4,2.29,3.89,3.58,5.27,5.84,1.14.49,1.74,1.81,3.37,2.09h0Zm-89.22-66.15c-1.19-2.22-2.31-3.66-3.75-4.82-1.75-1.41-3.29-2.99-4.67-4.75-.35-.44-.74-.91-1.44-.84.1.31.1.7.3.88,3.1,2.95,5.76,6.34,9.56,9.53h0Zm-20.66-18.89c1.88,2.3,3.63,4.08,5.64,5.62.21.16.61.07,1.04.11.11-.39.23-.8.39-1.35-1.77-1.55-3.54-3.09-5.32-4.62-.11-.09-.3-.13-.45-.11-.29.05-.58.15-1.3.36h0Zm82.91,79.63c.03.31-.01.51.07.63.47.64.93,1.3,1.48,1.87,1.66,1.75,3.28,3.54,5.05,5.18,1.17,1.08,2.56,1.92,3.87,2.84.19.13.49.12.81.19-2.73-3.73-6.75-6.06-9.72-9.44-.41-.47-.98-.81-1.56-1.27h0Zm-75.52-68.34c4.16,4.19,8.01,8.05,11.86,11.92.04-.04.08-.08.13-.11-2.76-3.08-5.52-6.15-8.21-9.15-.34-.83-.64-1.56-.86-2.12-.88-.53-1.54-.97-2.91-.54h0Zm4.57-16.68c-.76-.82-1.51-1.64-2.28-2.44-.78-.8-1.68-1.51-2.35-2.39-.82-1.06-1.96-1.57-3.05-2.23-.93-.57-1.69-1.39-3.21-2.69,5.55,6.84,6.3,7.54,10.9,9.75h0Zm-37.22-51.95c-.08.8-.15,1.6-.24,2.48,3.85,4.16,8.06,7.9,11.97,11.94,3.83,3.95,6.69,8.64,10.44,12.64,5.14,2.59,9.3,6.3,12.85,10.73,1.3,1.62,2.69,3.17,4.36,5.12-1.55-.93-2.39-1.88-3.23-2.83-.97-1.09-1.98-2.15-3.39-2.64-1.62-.56-2.72-1.74-3.79-2.92-1.42-1.55-2.84-3.05-4.61-4.22-.79-.52-1.37-1.35-2.05-2.03-2.74-2.72-5.48-5.45-8.23-8.16-.9-.88-1.82-1.73-3.27-1.72,1.33,1.65,2.6,3.27,4.53,4.32.97.53,1.74,1.42,2.53,2.21,1.7,1.71,3.35,3.48,5.03,5.21.56.58,1.07,1.26,1.75,1.65,2.58,1.48,4.39,3.74,6.32,5.9,3.75,4.2,7.66,8.26,11.91,11.98,3.26,2.86,6.21,6.03,9.18,9.42-.41.02-.57.08-.64.03-3.19-2.43-6.38-4.86-9.15-7.78-2.98-3.14-5.9-6.34-9.33-9.05-1.51-1.19-2.78-2.68-4.2-4-.33-.31-.79-.49-1.54-.94.84,2.2,2.43,3.33,3.65,4.72,1.38,1.57,2.88,3.04,4.35,4.52,1.36,1.37,2.74,2.72,4.13,4.06,1.5,1.45,3.01,2.9,4.54,4.33,1.4,1.32,3,2.44,4.01,4.05-.24.7-.44,1.31-.65,1.9,1.15.68,2.2,1.43,3.35,1.97,1.96.9,3.59,2.19,4.94,3.8,1.48,1.76,3.36,2.96,5.17,4.05.61.03.65-.15.35-.56-1.5-2.11-3.4-3.86-5.16-5.73-.98-1.04-1.8-2.24-2.67-3.38-.07-.09-.01-.27-.01-.41.29-.08.62-.28.85-.21,1.26.4,2.27,1.17,3.15,2.15,1.07,1.18,2.24,2.26,3.37,3.37.81-.69.82-1,.17-1.48-.51-.38-1.06-.71-1.57-1.11-.88-.7-1.94-1.28-2.56-2.17-1.68-2.41-3.8-4.32-6.43-5.93.39-.54.64-.87.89-1.21,4.15.93,5.92,4.37,8.25,7.18,2.26,1.74,5.33,2.42,6.92,5.12-1.34-2.24-3.01-4.16-5.03-5.65-2.61-1.93-4.86-4.23-7.12-6.5-2.16-2.18-4.51-4.11-7.05-5.96-.37-.63-.78-1.32-1.16-2.02-.05-.1.04-.27.07-.42.11-.07.27-.24.33-.21.28.14.59.29.8.52,1.17,1.33,2.31,2.68,3.55,4.12.8.33,1.67.73,2.58,1.03.91.3,1.87.49,3,.77.4.5.96,1.08,1.37,1.75.68,1.11,1.53,2.06,2.54,2.88.5.41,1.01.8,1.47,1.26,5.11,5.13,10.23,10.24,15.27,15.44,1.45,1.49,2.62,3.24,4.03,5.02.35.85.78,1.86,1.24,2.97.88.16,1.67.3,2.6.47.67.72,1.42,1.52,2.13,2.28.12.71.22,1.34.35,2.09,3.99,4.76,9.07,8.54,13.38,13.1,4.31,4.55,9.28,8.42,13.61,12.95-.26.65-.42,1.06-.62,1.56.47,1.37,1.87,1.35,2.98,1.47,1.53,1.2,2.93,2.29,4.52,3.53.36.63.84,1.46,1.37,2.36,3.27,2.97,6.58,6.01,9.94,9,3,2.67,6.06,5.27,9.1,7.9.36.31.72.65,1.14.87,4.05,2.16,7.1,5.53,10.44,8.53.71.64,1.39,1.37,1.85,2.19.65,1.18,1.61,2,2.63,2.78,1.26.98,2.56,1.9,3.8,2.81q3.35-.27,5.91,2.39c.34,1.86.69,3.75,1.09,5.97-.23,1.09-.53,2.5-.86,4.1.8,1.03,1.68,2.16,2.51,3.23.15.37.35.66.36.97.07,1.26.06,2.53.14,3.79.08,1.26.25,2.52.37,3.78-2.17.36-3.38-1.03-5.56-2.76,1.92,2.79,3.76,4.3,4.72,6.3-.24.9-.8,1.24-1.49,1.2-1.13-.07-2.25-.25-3.39-.39-.45,1.24.76,1.99.94,3.4-.08.29-.23.89-.44,1.67-1.52-.48-2.89-.91-4.7-1.48-.68.05-1.82.13-3.24.23-2.01,1.46-4.71,1.35-7.2,2.15-1.99-.84-3.8-1.84-5.24-3.42-.33-.36-.65-.72-1.04-1.01-4.65-3.51-8.41-7.95-12.63-11.9-6.93-6.5-13.4-13.44-20.1-20.15-6.25-6.27-12.6-12.44-18.94-18.62-4.38-4.27-8.69-8.63-13.27-12.67-4.11-3.63-7.81-7.67-11.9-11.29-3.14-2.78-6.17-5.65-9.11-8.63-.68-.68-1.45-1.28-2.16-1.93-1.19-1.08-2.43-2.12-3.53-3.28-6.2-6.54-12.38-13.1-18.55-19.67-1.99-2.11-3.99-4.2-5.94-6.34-3.05-3.34-6.65-6.06-10.08-8.98-1.72-1.46-3.45-2.92-5.03-4.52-3.62-3.68-7.61-6.95-11.61-10.2-1.89-1.53-3.68-3.14-5.36-4.86-2.47-2.53-5.03-4.94-7.88-7.1-5.38-4.08-10.52-8.48-15.79-12.71-2.89-2.32-5.86-4.54-8.76-6.84-1.13-.9-2.23-1.86-3.27-2.86-1.97-1.89-3.67-4.07-6.13-5.43-.14-.08-.26-.2-.37-.31-4.67-4.89-9.99-9.11-14.56-14.11-3.26-3.56-6.67-6.98-10.02-10.46-.45-.46-.86-.98-1.39-1.34-2.74-1.83-4.8-4.26-6.49-7.05-.41-.68-.99-1.27-1.54-1.86-3.38-3.67-6.62-7.49-10.2-10.95-3.36-3.24-6.62-6.54-9.57-10.14-1.83-2.24-3.76-4.41-5.6-6.64-.71-.86-1.28-1.84-1.94-2.74-2.42-3.29-3.24-6.91-2.36-11,.3-1.4.22-2.88.32-4.43,1.59-2.04,3.31-4.04,4.78-6.2,1.42-2.07,3.13-3.79,5.26-5.43,3.18-.25,6.39-.05,9.38,1.4,4.24,2.05,8.07,4.66,11.6,7.79,3.48,3.09,6.62,6.56,10.47,9.27,1.68,1.19,3.01,2.87,4.44,4.38,2.33,2.46,5.2,4.3,7.53,6.77,2.31,2.45,4.83,4.71,7.37,6.95,4.35,3.83,8.39,7.99,12.65,11.93,5.21,4.82,10.16,9.87,14.97,15.07,1.85,2,3.98,3.75,5.92,5.68,2.17,2.15,4.26,4.38,6.41,6.56,1.02,1.03,2.03,2.09,3.18,2.96,2.36,1.78,4.01,4.12,5.55,6.57l.02-.1h0Z"/>
  <path class="cls-1" d="m88.23,282.79l.19-.39-.41.16.21.23h0Zm190.64-186.6l-.17-.22-.2.31.36-.09h0Zm1.96-1.97c.25-.15.51-.28.75-.45.05-.04-.01-.21-.02-.32-.36.13-.84.16-.72.77h0Zm-27.98-6.17c.05.05.1.11.16.16.29-.31.59-.62.88-.93-.03-.03-.07-.07-.1-.1-.31.29-.63.58-.94.87h0Zm-20.83,7.71q1.25-.7,1.81-2.1c-.75.53-2.01.53-1.81,2.1h0Zm-148.62,189.83c1.27.33,2.39.4,2.77-1.08-1.3-.29-2.27-.07-2.77,1.08h0ZM228.88,98.51c-1.45.66-2.45,1.78-3.44,2.88-2.11,2.34-4.14,4.77-6.28,7.09-2.13,2.32-4.44,4.49-5.95,7.37-.21.4-1.1.52-.28,1.53,1.55-1.58,3.3-2.92,4.5-4.71,1.51-2.25,3.42-4.08,5.21-6.05.67-.73,1.56-1.36,1.9-2.28.58-1.52,1.67-2.47,2.8-3.45.69-.6,1.59-1.11,1.54-2.4h0Zm51.15-34.14c-2.24,1.53-3.78,2.95-5.24,4.48-5.05,5.32-10.09,10.64-15.14,15.97-1.03,1.08-2.09,2.13-3.09,3.23-1,1.11-1.86,2.37-2.94,3.4-5.92,5.63-11.1,11.99-16.83,17.82-3.85,3.92-7.11,8.41-11.03,12.28-1.53,1.51-2.7,3.39-4.01,5.12-.05.06.1.29.16.45.33,0,.8.17.96,0,1.99-1.99,3.95-4.03,5.9-6.07.46-.48,1.02-.94,1.23-1.56.65-1.89,2.08-3.02,3.45-4.23,1.25-1.11,2.51-2.2,3.63-3.43,6.88-7.49,13.67-15.07,20.59-22.52,3.98-4.27,8.18-8.32,12.25-12.5,3.58-3.67,7.37-7.17,10.1-12.44h0Zm-24.97,7.63c.09-1.36.89-2.23,1.74-3.02,7.29-6.84,13.99-14.3,21.62-20.78.76-.65,1.65-1.26,2.08-2.14.86-1.75,2.37-2.76,3.71-4,.45-.42.63-1.16.9-1.77.02-.04-.27-.26-.44-.41-2.37,1.84-4.74,3.68-7.15,5.55.2-1.14,1.18-1.59,1.62-2.46.45-.88.73-1.88,1.08-2.83,1.06-.47,2.13-.93,3.19-1.42.14-.06.18-.28.33-.51-.03-.79-.07-1.68-.1-2.54q2.57-2.23,6.89-3.38c1.31-1.02,2.75-2.15,4.21-3.27,1.27-.97,1.77-2.83,3.9-3.28-.4.68-.57,1.17-.91,1.5-1.08,1.04-2.28,1.96-3.32,3.03-.6.61-.84,1.46-.06,2.63.41-.12,1-.11,1.25-.4,1.6-1.86,3.41-3.43,5.84-4.33-.06,2.17-.86,3.8-2.29,5.05-1.01.88-1.96,1.81-3.16,2.92,2.32-.04,3.9-1.15,5.85-1.29,2.15-1.64,3.8-3.82,6.26-5.04.12.25.28.45.25.53-.93,1.79-1.88,3.57-2.53,4.8-.32,2.55-.57,4.46-.81,6.41,1.19-.02,1.67-.95,2.38-1.53,1.16-.95,2.32-1.93,3.26-3.09,1.08-1.33,2.4-2.3,3.99-3.15.44.1.98.22,1.48.33.99,2.47-2.06,2.93-1.64,5.1,1.75.49,2.67-1.01,4.38-.57.13.44.28.94.41,1.37-.83,1.57-2.7,1.45-4.04,2.42-.27.62-.6,1.4-.98,2.29,1.49-.26,2.64-1.27,4.41-.03-.02.45.13,1.11-.1,1.45-.67.95-1.5,1.76-2.35,2.72.15.67.31,1.4.47,2.13-.44,2.59-1.59,4.95-1.01,8.07-1.9,2.15-3.88,4.4-5.53,6.26-.89,1.56.55,3.09-.26,4.15l.16.02c-.19-.04-.4-.15-.55-.1-.31.1-.58.28-1.02.51-.37,1.9-.21,4.33-2.74,5.13-.32-.54-.65-1.1-1-1.7-2.8,1.67-4.06,4.84-6.43,6.92-2.21,1.94-4.46,3.83-6.76,6.01-.25-2.08,2.07-2.02,1.8-3.75-.28.13-.61.19-.82.39-1.43,1.37-2.82,2.77-4.19,4.11.25.52.42.85.67,1.36-1.92,2.42-4.2,4.59-6.54,6.68-1.62,1.44-3.12,2.97-4.39,4.77-2.13,3.03-4.85,5.49-7.77,7.73-.1.08-.33,0-.5,0-.23-.3-.45-.6-.68-.9-1.21.24-1.38,1.33-1.69,2.5-.54.15-1.32.15-1.78.53-1.41,1.16-2.94,2.27-3.98,3.77-1.74,2.5-3.96,4.49-6.05,6.63-2.21,2.27-4.38,4.58-6.52,6.91-.32.35-.41.93-.61,1.4v-.16c-4.22,3.57-7.88,7.69-11.55,11.8-1.67,1.87-3.37,3.7-5.08,5.52-2.17,2.31-4.43,4.52-6.27,7.15-1.24,1.76-2.85,3.21-4.28,4.77.25.42.44.74.64,1.07-.07,1.47-1.46,1.67-2.19,2.36-1.22,2.03-1.65,4.62-4.21,5.39-.05-.4-.09-.74-.13-1.11-1.07-.29-1.33.69-2.15,1.14-.51,1.28-1.07,2.71-1.57,3.98-1.13,1.63-2.97,2.45-3.23,4.57-.04.32-.38.54-.61.78-2.77,2.89-5.56,5.76-8.32,8.66-.92.96-1.75,2.01-2.66,2.99-.9.98-1.77,2.02-2.79,2.86-.89.73-2,1.22-3.22,1.94-.66,1.49-1.34,3.21-2.59,4.62-2.21,2.5-4.31,5.1-6.74,7.38-.61.57-1.25,1.16-1.61,1.91-1.3,2.68-3.57,4.41-5.62,6.35-3.27,3.09-6.73,5.99-9.83,9.24-3.1,3.24-6.29,6.36-9.63,9.35-2.98,2.66-5.97,5.31-9.1,7.81-1.69,1.35-3.5,2.65-5.54,3.44-1.97.76-3.54,1.93-5,3.29-3.05,2.84-6.04,5.76-9.07,8.62-1.57,1.49-3.1,3.04-4.8,4.39-2.36,1.87-4.64,3.81-6.45,6.28-.87.21-1.7.42-2.69.66-.27.25-.62.6-1,.92-4.17,3.58-8.34,7.16-12.5,10.75-1.9,1.64-3.77,3.3-5.65,4.95-3.13,2.75-6.09,5.71-9.44,8.17-2.57,1.89-4.78,4.12-7.11,6.24-2.22,2.01-4.54,3.93-6.88,5.81-1.81,1.45-3.62,2.94-5.62,4.13-2.91,1.74-5.37,3.95-7.71,6.35-.81.83-1.71,1.6-2.68,2.24-.53.35-1.26.53-2.04-.06,1.79-2.45,3.36-4.17,5.84-5.19,2.15-.89,3.81-2.3,4.87-4.19,2.05-3.65,5.13-6.2,8.44-8.43,3.12-2.09,5.69-4.59,7.56-8.06-.2-.35-.45-.79-.77-1.35-1.96.89-3.79,1.72-6.05,2.75-1.75,1.6-3.83,3.47-6.36,4.89-2.17,1.22-3.84,3.19-5.72,4.85-2.25,1.98-4.36,4.12-7.16,5.44-1.05.5-1.86,1.4-2.75,2.17-2.02,1.74-3.96,3.55-6.41,4.78-1.49.74-2.66,2.01-3.95,3.07-.77.63-1.42,1.43-2.27,1.96-1.55.98-3.2,1.82-4.86,2.74-.47-1.73,1.2-2.55.59-4.18-.32-.48-.63-.96-.95-1.44.05-.53.1-1.05.15-1.58-.88.03-1.75.05-2.54-.88-.13-.88-.26-1.79-.41-2.76-.33,0-.76-.11-.86.03-.55.83-.96,1.78-1.56,2.58-.26.35-.83.43-1.26.63-.28-.43-.47-.74-.78-1.23.7-1.88,2.06-3.32,3.34-4.75,1.01-.04,1.9-.08,2.87-.11,1.71-1.52,3.25-3.2,4.36-5.37,1.08-2.11,2.47-4.03,3.88-5.9.9-1.19,1.95-2.32,3.16-3.17,3.6-2.53,6.46-5.73,8.6-9.92-1.12.2-1.68.9-2.31,1.46-.87.77-1.67,1.62-2.57,2.35-.77.63-1.64,1.14-2.37,1.64-.83-.03-1.57.18-1.86-.89.03-.2-.02-.47.09-.55,2.93-2.21,5.01-5.33,7.99-7.5,1.06-.77,1.78-1.99,2.69-2.96,2.63-2.79,5.23-5.62,7.94-8.33,3.06-3.07,6.23-6.03,9.36-9.04.24-.23.54-.42.72-.69,3.4-5.04,8.03-8.92,12.05-13.38,6.14-6.82,12.93-12.99,19.48-19.39,2.03-1.98,3.92-4.09,5.83-6.19.55-.61,1.15-1.29,1.36-2.1.72-2.81,2.53-4.77,4.22-6.82,3.61-4.39,7.56-8.45,11.1-12.92,2.18-2.75,4.79-5.11,7.22-7.64,1.38-1.44,2.87-2.79,4.15-4.32,1.85-2.21,4.13-3.86,6.71-5.25.54.33,1.02.63,1.59.99,1.8-.86,2.89-2.54,3.89-4.31,5.18-2.94,5.59-3.53,6.59-9.69.42-.52.9-1.21,1.46-1.82,2.04-2.2,4.08-4.41,6.17-6.56,1.51-1.55,2.96-3.16,4.82-4.35,2.27-1.45,3.94-3.55,5.6-5.65,1.28.53.24,1.14.47,1.65.07.16.28.27.47.44.73-.67,1.67-1.2,2.15-2.05,1.34-2.41,3.36-4.14,5.24-6.03.47-.47.98-.92,1.38-1.46,3.01-4.03,6.45-7.67,9.68-11.5,1.94-2.3,3.88-4.6,5.85-6.87,1.75-2.01,3.25-4.25,5.26-6.02.62-.55,1.23-1.13,1.89-1.75.97-.22,1.98-.46,3.17-.73,2.35-2.37,4.86-4.82,7.28-7.35,1.38-1.44,2.74-2.88,4.22-4.23,1.96-1.78,3.53-3.99,5.27-6.01.44-.51.88-1,1.51-1.7,2.95-.54,5.21-2.5,7.38-4.58,1.24,1.09,2.26,1.98,3.25,2.85-.05.26-.03.48-.13.59-3.71,4.25-6.76,9.12-11.28,12.6-1.93,3.82-6.24,5.59-7.19,9.73-1.22.76-2.07,1.29-2.97,1.84-1.01,1.71-2.04,3.45-3.12,5.28-.72.34-1.47.71-2.5,1.2-1.73,2.05-3.49,4.47-5.21,6.92-1.71,2.43-3.76,4.57-5.65,6.82.53.82,1.06.66,1.45.36,1.05-.8,1.58-2.09,2.69-2.91,2.7-1.96,5.2-4.18,8.05-6.51,1.46-2.47,3.03-5.3,5.78-7.08.27-.18.47-.48.64-.77,2.8-4.76,6.94-8.08,11.86-10.95,2.05-4.26,6.47-6.84,8.61-11.44,3.23-2.28,6.24-4.85,8.31-8.43,1.18-2.05,2.83-3.7,4.62-5.22,3.81-3.24,7.05-7.05,10.34-10.82,2.85-3.27,5.48-6.73,8.37-9.96.45-.51.82-1.05.37-2-.49-.13-1.02-.27-1.46-.39-1.36.7-2.19,1.69-2.38,3.22l-.02-.16c-.13.48-.26.97-.4,1.47-.91.85-1.83,1.7-2.81,2.6-.74-.34-1.41-.65-2.07-.96.22-.33.19-.45-.09-.35l.22.37c-1.78.66-2.25,2.63-3.66,3.79-.77.02-1.62.03-2.46.05l.16.03h0Z"/>
</svg>